
<svg fill="#166534" height="300px" width="100%"  version="1.1" id="Capa_1" xmlns="http://www.w3.org/2000/svg" xmlns:xlink="http://www.w3.org/1999/xlink" 
	 viewBox="0 0 466.708 466.708" xml:space="preserve">
<g>
	<path d="M195.174,178.796h-45.196l-43.673-46.89c-4.289-4.592-10.392-7.471-17.156-7.471H60.558
		c-8.588,0-16.111,4.636-20.207,11.534L1.706,210.736c-2.406,5.451-2.174,11.717,0.107,16.762l54.21,118.127l-43.917,59.644
		c-7.406,8.859-6.317,22.1,2.467,29.608l0.492,0.423c3.823,3.268,8.696,5.068,13.723,5.068c6.194,0,12.053-2.698,16.075-7.403
		c0,0,54.303-73.987,54.489-74.714c2.741-5.021,3.264-11.654,1.274-17.482l-5.56-12.297l18.963,13.314l-7.106,67.516
		c-0.619,5.612,0.983,11.129,4.513,15.534c3.53,4.406,8.565,7.174,14.164,7.79c0.774,0.085,2.197,0.201,2.972,0.201
		c10.781,0,19.804-8.092,20.992-18.852l8.04-76.406c1.19-9.895-0.26-17.371-7.38-22.837L112.635,287.5v-94.481l15.211,16.391
		c3.48,4.053,8.531,6.374,13.882,6.374c0.162,0-0.162-0.018,0-0.021c0.02,0-0.02,0.003,0,0.003h53.445
		c10.191,0,18.482-8.29,18.482-18.48C213.656,187.089,205.365,178.796,195.174,178.796z M67.671,175.12l-24.532,43.972
		l20.713,42.707c3.94,8.133,1.959,17.972-4.819,23.927c-1.139,1.002-2.552,1.493-3.958,1.493c-1.666,0-3.323-0.689-4.509-2.039
		c-2.188-2.489-1.943-6.28,0.546-8.468c2.738-2.406,3.537-6.387,1.942-9.679l-22.076-45.517c-0.855-1.762-0.795-3.831,0.159-5.541
		l26.055-46.701c1.614-2.895,5.27-3.932,8.163-2.316C68.248,168.572,69.285,172.226,67.671,175.12z"/>
	<path d="M44.862,432.964C44.776,433.082,44.956,432.854,44.862,432.964L44.862,432.964z"/>
	<path d="M1.813,227.498C1.714,227.293,1.888,227.711,1.813,227.498L1.813,227.498z"/>
	<path d="M100.625,340.768C100.703,340.942,100.563,340.587,100.625,340.768L100.625,340.768z"/>
	<path d="M1.706,210.736C1.754,210.629,1.653,210.84,1.706,210.736L1.706,210.736z"/>
	<path d="M40.351,135.97C40.482,135.715,40.19,136.199,40.351,135.97L40.351,135.97z"/>
	<path d="M106.305,131.907C106.609,132.129,106.039,131.621,106.305,131.907L106.305,131.907z"/>
</g>
<path d="M78.793,26.339c-24.788,0-44.954,20.166-44.954,44.954s20.167,44.954,44.954,44.954s44.954-20.166,44.954-44.954
	S103.58,26.339,78.793,26.339z"/>
<path d="M463.162,328.128l-11.884-5.328c-1.874-8.54-9.499-14.951-18.594-14.951h-2.655c-5.929-4.783-13.293-7.391-20.993-7.391
	c-10.128,0-19.393,4.399-24.18,11.482c-3.633,5.374-4.276,11.71-1.813,17.841c0.529,1.315,1.138,2.534,1.823,3.649
	c-3.795,6.773-3.496,14.393,1.057,20.767c1.077,1.509,2.197,2.756,3.331,3.783h-53.897l5.149-23.618
	c20.173-4.635,28.923-11.01,38.739-25.34c0.876-0.982,1.486-2.218,1.698-3.597c0.51-3.311-1.399-6.514-4.555-7.646l-19.054-6.478
	c-1.511-6.185-6.175-11.149-12.188-13.078l-0.979-11.279c-0.206-2.376-1.802-4.405-4.063-5.167c-2.26-0.76-4.758-0.111-6.36,1.656
	l-3.303,3.642l-2.41-8.438c-0.715-2.502-2.961-4.258-5.561-4.348c-2.582-0.109-4.962,1.505-5.849,3.951l-23.088,63.696
	l-85.689,3.998c-0.048,0.002-0.096,0.004-0.144,0.007c-17.224,1.033-33.526-8.178-41.541-23.471c-1.538-2.935-5.163-4.067-8.1-2.529
	c-2.935,1.538-4.067,5.164-2.529,8.1c7.243,13.821,19.806,23.738,34.33,27.859c-4.573,6.308-13.324,23.085-1.126,48.008
	l-12.186,16.552c-0.982,1.335-1.369,3.017-1.068,4.646l5.597,30.349c0.525,2.847,3.006,4.912,5.9,4.912h5.701
	c1.779,0,3.467-0.79,4.607-2.156c1.14-1.366,1.615-3.168,1.296-4.919l-3.382-18.577l36.839-27.657c0.087-0.066-0.084,0.071,0,0
	c3.419-2.872,5.965-6.009,7.861-9.24c19.052,3.343,44.52,7.761,61.399,10.492l7.388,46.989c0.458,2.918,2.973,5.068,5.927,5.068
	H329.1c0.007,0.001,0.015,0.001,0.02,0c3.314,0,6-2.686,6-6c0-0.542-0.071-1.067-0.206-1.566l-2.273-12.485l21.829-15.877
	c23.09,7.574,41.14,11.573,53.729,11.903l2.981,18.958c0.459,2.918,2.973,5.067,5.927,5.067h3.651c3.313,0,6-2.686,6-6v-24.081
	c16.799-15.955,10.397-50.224,10.397-50.224c9.503-0.985,15.922-4.652,19.806-7.801c6.194-5.023,9.747-11.824,9.747-18.66
	C466.708,331.238,465.319,329.094,463.162,328.128z"/>
</svg>